<?xml version="1.0" standalone="no"?>
<!DOCTYPE svg PUBLIC "-//W3C//DTD SVG 1.1//EN" "http://www.w3.org/Graphics/SVG/1.1/DTD/svg11.dtd" >
<svg xmlns="http://www.w3.org/2000/svg">
<metadata>
<json>
<![CDATA[
{
	"fontFamily": "ShadowsFontPack",
	"majorVersion": 1,
	"minorVersion": 0,
	"version": "Version 1.0",
	"fontId": "ShadowsFontPack",
	"psName": "ShadowsFontPack",
	"subFamily": "Regular",
	"fullName": "ShadowsFontPack",
	"description": "Font generated by IcoMoon."
}
]]>
</json>
</metadata>
<defs>
<font id="ShadowsFontPack" horiz-adv-x="1024">
<font-face units-per-em="1024" ascent="960" descent="-64" />
<missing-glyph horiz-adv-x="1024" />
<glyph unicode="&#x20;" horiz-adv-x="512" d="" />
<glyph unicode="&#x21;" glyph-name="error" data-tags="error" d="M470.4 188.8h89.6v83.2h-89.6c0-3.2 0-83.2 0-83.2zM470.4 339.2h89.6v368h-89.6c0 0 0-368 0-368zM934.4 275.2l-246.4-246.4h-345.6l-246.4 246.4v348.8l246.4 246.4h348.8l246.4-246.4v-348.8zM723.2 956.8h-422.4l-297.6-297.6v-422.4l297.6-300.8h422.4l297.6 297.6v425.6l-297.6 297.6z" />
<glyph unicode="&#x22;" glyph-name="warning" data-tags="warning" d="M940.8 73.6c0-3.2-3.2-9.6-12.8-9.6h-832c-9.6 0-12.8 3.2-12.8 9.6 0 3.2-3.2 9.6 0 12.8l416 736c3.2 3.2 9.6 9.6 12.8 9.6s9.6 0 12.8-9.6l416-736c3.2-6.4 3.2-9.6 0-12.8v0zM595.2 864c-16 28.8-51.2 51.2-83.2 51.2-38.4 0-67.2-16-83.2-51.2l-416-732.8c-16-28.8-16-67.2 0-96s51.2-51.2 83.2-51.2h832c32 0 67.2 16 83.2 51.2 16 28.8 16 67.2 0 96l-416 732.8zM473.6 576h83.2v-278.4h-83.2v278.4zM473.6 243.2h83.2v-96h-83.2v96z" />
<glyph unicode="&#x23;" glyph-name="question" data-tags="question" d="M511.993 960.007c-134.4 0-265.6-51.2-361.6-150.4s-150.4-227.2-150.4-361.6 51.2-265.6 150.4-361.6 227.2-150.4 361.6-150.4 265.6 51.2 361.6 150.4 150.4 227.2 150.4 361.6-51.2 265.6-150.4 361.6-227.2 150.4-361.6 150.4zM511.993 857.607c108.8 0 214.4-44.8 291.2-118.4 80-80 118.4-179.2 118.4-291.2s-44.8-214.4-118.4-291.2c-80-80-179.2-118.4-291.2-118.4s-214.4 44.8-291.2 118.4c-80 80-118.4 179.2-118.4 291.2s44.8 214.4 118.4 291.2c76.8 73.6 182.4 118.4 291.2 118.4zM390.393 537.607h-38.4c-3.2 0-3.2 0-3.2 3.2 0 25.6 6.4 51.2 16 73.6 16 28.8 38.4 51.2 67.2 67.2 48 22.4 105.6 28.8 153.6 9.6 38.4-12.8 64-38.4 80-73.6 6.4-22.4 12.8-44.8 6.4-70.4-3.2-28.8-16-57.6-38.4-73.6-16-16-35.2-28.8-51.2-44.8v0c-16-12.8-22.4-22.4-28.8-38.4-6.4-12.8-9.6-28.8-9.6-38.4 0-3.2 0-6.4 0-16v-3.2c0 0 0 0-3.2 0h-67.2c0 0 0 0-3.2 0 0 0 0 0 0 3.2 0 22.4 3.2 44.8 6.4 67.2 6.4 22.4 19.2 41.6 38.4 60.8 16 16 28.8 28.8 44.8 44.8v0c12.8 12.8 19.2 25.6 22.4 44.8 3.2 28.8-3.2 48-35.2 60.8-25.6 12.8-57.6 6.4-83.2-3.2-19.2-6.4-28.8-25.6-35.2-44.8 0-6.4-3.2-12.8-3.2-19.2v-3.2h-3.2l-32-6.4zM515.193 288.007c12.8 0 22.4-3.2 35.2-16 6.4-6.4 12.8-19.2 12.8-35.2 0-25.6-22.4-44.8-44.8-44.8-25.6 0-44.8 22.4-44.8 44.8 0 12.8 3.2 22.4 16 35.2 3.2 9.6 12.8 16 25.6 16v0z" />
<glyph unicode="&#x24;" glyph-name="info" data-tags="info" d="M512 832c211.2 0 384-172.8 384-384s-172.8-384-384-384-384 172.8-384 384 172.8 384 384 384zM512-41.6c268.8 0 489.6 220.8 489.6 489.6s-220.8 489.6-489.6 489.6-489.6-220.8-489.6-489.6 220.8-489.6 489.6-489.6zM460.8 678.4v-96h105.6v96h-105.6zM460.8 217.6h105.6v297.6h-105.6c0 0 0-297.6 0-297.6z" />
<glyph unicode="&#x25;" glyph-name="gift" data-tags="gift" d="M543.994 428.807h329.6v-419.2h-329.6v419.2zM143.994 428.807h329.6v-419.2h-329.6v419.2zM543.994 624.007h400v-134.4h-400v134.4zM79.994 624.007h396.8v-134.4h-396.8v134.4zM643.194 892.807c54.4 0 99.2-44.8 99.2-99.2s-44.8-99.2-99.2-99.2h-99.2v96c0 57.6 41.6 102.4 99.2 102.4zM374.394 892.807c57.6 0 99.2-44.8 99.2-99.2v-99.2h-99.2c-54.4 0-99.2 44.8-99.2 99.2s44.8 99.2 99.2 99.2zM374.394 956.807c-89.6 0-163.2-76.8-163.2-166.4 0-38.4 12.8-73.6 35.2-99.2h-201.6c-16 0-35.2-16-35.2-32v-198.4c0-16 16-35.2 35.2-35.2h35.2v-454.4c0-16 16-35.2 35.2-35.2h793.6c16 0 35.2 16 35.2 35.2v457.6h35.2c16 0 35.2 16 35.2 35.2v195.2c0 16-16 35.2-35.2 35.2h-198.4c19.2 28.8 35.2 60.8 35.2 99.2 0 92.8-76.8 166.4-166.4 166.4-54.4 0-102.4-28.8-134.4-64-38.4 32-86.4 60.8-140.8 60.8v0z" />
<glyph unicode="&#x26;" glyph-name="settings" data-tags="settings" d="M977.599 388.799c-25.6 9.6-41.6 32-41.6 60.8s16 48 41.6 60.8c38.4 16 57.6 57.6 44.8 96-9.6 28.8-19.2 57.6-38.4 96-19.2 32-60.8 48-99.2 32-25.6-9.6-54.4-3.2-73.6 12.8-19.2 19.2-25.6 48-12.8 73.6 16 38.4 0 80-32 99.2-28.8 16-60.8 28.8-96 38.4-38.4 12.8-80-9.6-96-44.8-9.6-25.6-32-41.6-60.8-41.6-25.6 0-48 16-60.8 41.6-16 38.4-57.6 57.6-96 44.8-28.8-9.6-57.6-19.2-96-38.4-35.2-19.2-48-60.8-35.2-99.2 9.6-25.6 3.2-54.4-12.8-73.6-22.4-16-51.2-19.2-76.8-9.6-38.4 12.8-80-3.2-96-38.4-16-28.8-28.8-60.8-38.4-96-9.6-41.6 9.6-80 44.8-96 25.6-9.6 41.6-32 41.6-60.8s-16-48-41.6-60.8c-38.4-16-57.6-57.6-44.8-96 9.6-28.8 19.2-57.6 38.4-96 19.2-32 60.8-48 99.2-32 25.6 9.6 54.4 3.2 73.6-12.8 19.2-19.2 25.6-48 12.8-73.6-16-38.4 0-80 32-99.2 28.8-16 60.8-28.8 96-38.4 38.4-12.8 80 9.6 96 44.8 9.6 25.6 32 41.6 60.8 41.6 25.6 0 48-16 60.8-41.6 16-38.4 54.4-57.6 96-44.8 28.8 9.6 57.6 19.2 96 38.4s48 60.8 32 99.2c-9.6 25.6-3.2 54.4 12.8 73.6 19.2 19.2 48 25.6 73.6 12.8 38.4-12.8 80 0 99.2 38.4 16 28.8 28.8 60.8 38.4 96 16 35.2-6.4 73.6-41.6 92.8zM951.999 308.799c-9.6-19.2-16-44.8-28.8-70.4l-3.2-9.6-9.6 3.2c-48 19.2-108.8 9.6-147.2-32s-54.4-99.2-32-147.2l3.2-9.6-9.6-3.2c-25.6-12.8-44.8-19.2-70.4-28.8l-9.6-3.2-3.2 6.4c-19.2 51.2-73.6 83.2-128 83.2s-102.4-32-128-83.2l-3.2-9.6-9.6 3.2c-19.2 9.6-44.8 16-70.4 28.8l-9.6 3.2 3.2 9.6c19.2 48 3.2 108.8-32 147.2-38.4 38.4-96 54.4-147.2 32l-9.6-3.2v12.8c-9.6 28.8-19.2 51.2-28.8 73.6l-3.2 9.6 9.6 3.2c48 19.2 83.2 73.6 83.2 128s-32 102.4-83.2 128l-9.6 3.2 3.2 9.6c9.6 19.2 16 44.8 28.8 70.4l6.4 9.6 9.6-3.2c48-25.6 108.8-12.8 144 28.8 41.6 38.4 54.4 96 32 147.2l-3.2 9.6 12.8 3.2c25.6 12.8 44.8 19.2 70.4 28.8l6.4 3.2 3.2-9.6c25.6-48 76.8-80 128-80s102.4 32 128 83.2l3.2 9.6 9.6-3.2c19.2-9.6 44.8-16 70.4-28.8l9.6-6.4-3.2-9.6c-19.2-54.4-9.6-112 28.8-147.2 41.6-41.6 96-54.4 147.2-32l9.6 3.2 3.2-9.6c12.8-25.6 19.2-44.8 28.8-70.4l3.2-9.6-6.4-3.2c-51.2-25.6-83.2-73.6-83.2-128s32-102.4 83.2-128l9.6-3.2-6.4-9.6zM513.599 657.599c-112 0-208-89.6-208-208s89.6-208 208-208 208 89.6 208 208-96 208-208 208zM513.599 321.599c-70.4 0-128 57.6-128 128s57.6 128 128 128 128-57.6 128-128-57.6-128-128-128z" />
<glyph unicode="&#x27;" glyph-name="protected" data-tags="protected" d="M924.79 775.597c-137.6 57.6-272 121.6-412.8 185.6h-6.4c-144-64-281.6-124.8-419.2-185.6 0 0-3.2-3.2 0-3.2 0-44.8 0-89.6 0-131.2 0-51.2 0-102.4 0-150.4 0-28.8 3.2-57.6 9.6-89.6 16-92.8 54.4-185.6 108.8-259.2 76.8-102.4 172.8-172.8 284.8-204.8 12.8-3.2 22.4-3.2 35.2 0 108.8 35.2 204.8 102.4 278.4 192 83.2 105.6 131.2 240 131.2 374.4v265.6c-6.4 3.2-9.6 6.4-9.6 6.4zM851.19 445.997c-16-169.6-137.6-377.6-339.2-438.4l-12.8-3.2v432h-332.8v9.6c0 3.2 0 9.6 0 12.8v249.6c0 9.6 3.2 22.4 12.8 25.6 105.6 44.8 214.4 92.8 320 144 0 0 3.2 0 9.6 3.2l16 3.2v-428.8h332.8l-6.4-9.6zM505.59 445.997v0 0 0 0zM505.59 445.997v0 0 0 0zM505.59 445.997v0 0 0 0zM505.59 445.997v0 0 0 0zM505.59 445.997v0 0 0 0z" />
<glyph unicode="&#x28;" glyph-name="secure" data-tags="secure" d="M873.6 310.4c-3.2 96-48 192-118.4 256v147.2c0 86.4-48 166.4-121.6 208s-169.6 44.8-240 0c-80-41.6-121.6-121.6-121.6-208v-147.2c-73.6-64-115.2-160-118.4-256s32-192 102.4-262.4c67.2-67.2 163.2-108.8 259.2-108.8s192 38.4 259.2 108.8c64 67.2 102.4 166.4 99.2 262.4zM342.4 713.6c0 92.8 76.8 169.6 169.6 169.6s169.6-76.8 169.6-169.6v-96c-105.6 54.4-230.4 54.4-336 0v96h-3.2zM713.6 96c-54.4-54.4-124.8-83.2-201.6-83.2s-147.2 28.8-201.6 83.2-83.2 124.8-83.2 201.6 28.8 147.2 83.2 201.6 124.8 83.2 201.6 83.2 147.2-28.8 201.6-83.2c54.4-54.4 83.2-124.8 83.2-201.6 0-73.6-28.8-147.2-83.2-201.6zM566.4 380.8v-54.4c0-6.4-6.4-16-19.2-22.4 0-3.2 0-6.4 0-9.6v-76.8c0-22.4-19.2-35.2-35.2-35.2-22.4 0-35.2 19.2-35.2 35.2v76.8c0 3.2 0 6.4 0 9.6-9.6 3.2-19.2 9.6-19.2 22.4v54.4c0 16 25.6 28.8 54.4 28.8s54.4-12.8 54.4-28.8z" />
<glyph unicode="&#x29;" glyph-name="envelope" data-tags="envelope" d="M848 726.4h-672l336-268.8 336 268.8zM512 336l-419.2 332.8v-496h841.6v496l-422.4-332.8zM1024 816v-739.2h-1024v739.2h1024z" />
<glyph unicode="&#x2a;" glyph-name="truck" data-tags="truck" d="M320 816v-140.8h-153.6l-96-179.2h-9.6c-32 0-60.8-28.8-60.8-64v-256h67.2l3.2-6.4c19.2-54.4 70.4-89.6 131.2-89.6s108.8 38.4 124.8 92.8l3.2 6.4h326.4l3.2-6.4c19.2-54.4 70.4-92.8 131.2-92.8s112 38.4 124.8 92.8l3.2 6.4h99.2v636.8h-697.6zM198.4 153.6c-25.6 0-48 16-54.4 38.4-9.6 22.4-3.2 48 16 67.2s44.8 22.4 67.2 16c22.4-9.6 38.4-28.8 38.4-54.4-6.4-41.6-35.2-67.2-67.2-67.2zM320 281.6l-19.2 22.4c-25.6 28.8-64 48-102.4 48v0c-41.6 0-76.8-19.2-102.4-48l-19.2-22.4v140.8h243.2v-140.8zM320 496h-166.4l54.4 102.4h112v-102.4zM828.8 172.8c-9.6-9.6-25.6-19.2-44.8-19.2-25.6 0-48 16-54.4 38.4s-3.2 48 9.6 67.2c19.2 19.2 41.6 22.4 67.2 16 22.4-6.4 38.4-28.8 38.4-54.4 3.2-22.4-3.2-35.2-16-48zM944 256h-28.8v6.4c-19.2 51.2-70.4 89.6-128 89.6s-108.8-38.4-124.8-89.6l-3.2-6.4h-259.2v486.4h550.4v-486.4h-6.4z" />
<glyph unicode="&#x2b;" glyph-name="globe" data-tags="globe" d="M512 928c-265.6 0-480-214.4-480-480s214.4-480 480-480 480 214.4 480 480-214.4 480-480 480zM860.8 672h-96c-19.2 57.6-44.8 108.8-73.6 150.4 70.4-32 128-86.4 169.6-150.4zM544 672v185.6c60.8-19.2 118.4-86.4 156.8-185.6h-156.8zM716.8 608c9.6-38.4 16-83.2 16-128h-192v128h176zM480 857.6v-185.6h-156.8c38.4 102.4 96 169.6 156.8 185.6zM480 608v-128h-192c3.2 44.8 6.4 89.6 16 128 3.2 0 176 0 176 0zM224 480h-128c3.2 44.8 12.8 89.6 32 128h112c-6.4-41.6-12.8-83.2-16-128zM224 416c3.2-44.8 6.4-86.4 16-128h-112c-16 38.4-25.6 83.2-32 128h128zM288 416h192v-128h-172.8c-9.6 38.4-16 83.2-19.2 128zM480 224v-185.6c-60.8 19.2-118.4 86.4-156.8 185.6h156.8zM544 38.4v185.6h156.8c-38.4-102.4-96-169.6-156.8-185.6zM544 288v128h192c-3.2-44.8-6.4-89.6-16-128h-176zM800 416h128c-3.2-44.8-12.8-89.6-32-128h-112c6.4 41.6 12.8 83.2 16 128zM800 480c-3.2 44.8-6.4 86.4-16 128h112c16-38.4 25.6-83.2 32-128h-128zM332.8 822.4c-32-41.6-57.6-92.8-76.8-150.4h-96c44.8 64 102.4 118.4 172.8 150.4zM163.2 224h96c19.2-57.6 44.8-108.8 73.6-150.4-70.4 32-128 86.4-169.6 150.4zM691.2 73.6c32 41.6 57.6 92.8 73.6 150.4h96c-41.6-64-99.2-118.4-169.6-150.4z" />
<glyph unicode="&#x2c;" glyph-name="history" data-tags="history" d="M585.6 467.2v224h-80v-265.6l147.2-118.4 51.2 64-118.4 96zM544 921.6c-262.4 0-470.4-211.2-470.4-473.6v-6.4h-70.4l118.4-147.2 118.4 147.2h-86.4v6.4c0 217.6 176 396.8 396.8 396.8s390.4-179.2 390.4-396.8-176-396.8-396.8-396.8c-102.4 0-198.4 41.6-272 112l-54.4-54.4c89.6-86.4 208-134.4 332.8-134.4 262.4 0 473.6 214.4 473.6 473.6s-217.6 473.6-480 473.6z" />
<glyph unicode="&#x2d;" glyph-name="balance" data-tags="balance" d="M1001.6 499.2v0l-115.2 204.8h76.8c16 0 35.2 12.8 35.2 35.2 0 16-12.8 35.2-35.2 35.2h-352l-3.2 6.4c-16 41.6-54.4 67.2-96 67.2s-83.2-28.8-96-67.2l-3.2-6.4h-352c-16 0-35.2-12.8-35.2-35.2 0-16 12.8-35.2 35.2-35.2h73.6l-112-201.6h-3.2c-12.8-6.4-19.2-16-19.2-25.6 0-67.2 35.2-128 92.8-160 54.4-35.2 128-35.2 185.6 0s92.8 92.8 92.8 160c0 9.6-6.4 25.6-16 28.8h-3.2l-108.8 198.4h163.2l3.2-6.4c9.6-28.8 32-48 57.6-57.6l6.4-3.2v-390.4l-6.4-3.2c-35.2-9.6-67.2-28.8-86.4-57.6-22.4-28.8-35.2-64-35.2-102.4 0-6.4 3.2-16 9.6-25.6s12.8-9.6 25.6-9.6h256c6.4 0 16 3.2 25.6 9.6 6.4 6.4 9.6 12.8 9.6 25.6 0 35.2-9.6 70.4-35.2 102.4-22.4 28.8-51.2 48-86.4 57.6l-6.4 3.2v390.4l6.4 3.2c28.8 9.6 48 32 57.6 57.6l9.6 6.4h163.2l-112-201.6h-3.2c-9.6-6.4-16-16-16-28.8 0-67.2 35.2-128 92.8-160 57.6-35.2 128-35.2 188.8 0 57.6 35.2 92.8 92.8 92.8 160-3.2 9.6-6.4 19.2-22.4 25.6zM297.6 422.4c-16-41.6-64-70.4-108.8-70.4s-89.6 28.8-108.8 70.4l-6.4 12.8h230.4l-6.4-12.8zM275.2 502.4h-176l86.4 163.2 89.6-163.2zM592 134.4l9.6-16h-185.6l9.6 16c16 28.8 48 44.8 83.2 44.8s70.4-16 83.2-44.8zM540.8 710.4c-6.4-6.4-16-9.6-28.8-9.6-3.2 0-9.6 0-12.8 3.2-12.8 6.4-25.6 22.4-25.6 38.4 0 9.6 3.2 22.4 9.6 28.8s16 12.8 28.8 12.8h9.6v-3.2c12.8-6.4 22.4-12.8 28.8-25.6 3.2-19.2 0-35.2-9.6-44.8zM835.2 665.6l86.4-163.2h-176l89.6 163.2zM944 422.4c-22.4-41.6-64-70.4-108.8-70.4v0c-48 0-89.6 28.8-108.8 70.4l-6.4 12.8h233.6l-9.6-12.8z" />
<glyph unicode="&#x2e;" glyph-name="remove" data-tags="remove" d="M841.6 796.8h-134.4v64c0 22.4-9.6 41.6-25.6 60.8-16 16-38.4 28.8-60.8 28.8h-217.6c-44.8 0-83.2-38.4-83.2-86.4v-64h-137.6c-54.4 0-96-41.6-96-96v-38.4c0-48 35.2-83.2 76.8-92.8h9.6v-521.6c0-28.8 12.8-54.4 35.2-76.8s48-28.8 76.8-28.8h467.2c28.8 0 54.4 12.8 76.8 28.8 22.4 22.4 35.2 48 35.2 76.8v512c48 9.6 76.8 51.2 76.8 92.8v44.8c0 54.4-41.6 96-99.2 96zM393.6 870.4h233.6v-73.6h-233.6c0 0 0 73.6 0 73.6zM777.6 44.8c0-9.6-3.2-16-9.6-22.4-3.2-3.2-12.8-9.6-22.4-9.6h-464c-16 0-35.2 12.8-35.2 35.2v515.2h534.4l-3.2-518.4zM864 662.4c0-3.2-3.2-12.8-3.2-12.8-3.2-3.2-9.6-3.2-12.8-3.2h-665.6c-12.8 0-22.4 6.4-22.4 19.2v35.2c0 12.8 9.6 22.4 22.4 22.4h662.4c3.2 0 9.6 0 12.8-3.2s3.2-9.6 3.2-12.8v-41.6h3.2zM643.2 444.8v-304c0-9.6-3.2-22.4-12.8-25.6-12.8-12.8-38.4-12.8-54.4 0-9.6 9.6-12.8 16-12.8 25.6v304c0 22.4 16 38.4 38.4 38.4 25.6 0 41.6-16 41.6-38.4zM457.6 444.8v-304c0-9.6-3.2-22.4-12.8-25.6-12.8-12.8-38.4-12.8-54.4 0-9.6 9.6-12.8 16-12.8 25.6v304c0 22.4 16 38.4 38.4 38.4s41.6-16 41.6-38.4z" />
<glyph unicode="&#x2f;" glyph-name="cart-add" data-tags="cart-add" d="M857.6 294.4c-51.2 0-92.8-25.6-115.2-70.4h-243.2c-22.4 38.4-64 70.4-115.2 70.4 0 0 0 0-3.2 0l-3.2 19.2h508.8l137.6 438.4h-758.4l-32 115.2h-230.4v-67.2h182.4l131.2-524.8c-38.4-22.4-64-64-64-115.2 0-73.6 60.8-134.4 134.4-134.4s131.2 57.6 134.4 131.2h208c0-73.6 60.8-131.2 134.4-131.2s134.4 60.8 134.4 134.4c-6.4 76.8-67.2 134.4-140.8 134.4zM928 688l-96-304h-473.6l-76.8 304c0 0 646.4 0 646.4 0zM380.8 92.8c-35.2 0-64 32-64 64 0 35.2 32 64 64 64s64-32 64-64c6.4-25.6-25.6-64-64-64zM857.6 92.8c-35.2 0-64 32-64 64 0 35.2 32 64 64 64s64-32 64-64c3.2-25.6-25.6-64-64-64zM704 544v-19.2c0-6.4-6.4-16-16-16h-60.8v-60.8c0-6.4-6.4-16-16-16h-22.4c-6.4 0-16 6.4-16 16v60.8h-60.8c-6.4 0-16 6.4-16 16v19.2c0 6.4 6.4 16 16 16h60.8v60.8c0 6.4 3.2 12.8 12.8 16v0h22.4c6.4 0 16-6.4 16-16v-60.8h60.8c12.8 0 16-6.4 19.2-16z" />
<glyph unicode="&#x30;" glyph-name="chevron-up" data-tags="chevron-up" d="M1024 262.4l-121.6-108.8-390.4 364.8-390.4-364.8-121.6 108.8 512 480 512-480z" />
<glyph unicode="&#x31;" glyph-name="chevron-down" data-tags="chevron-down" d="M0 601.6l121.6 108.8 390.4-364.8 390.4 364.8 121.6-108.8-512-480-512 480z" />
<glyph unicode="&#x32;" glyph-name="chevron-left" data-tags="chevron-left" d="M697.6 960l108.8-121.6-364.8-390.4 364.8-390.4-108.8-121.6-480 512 480 512z" />
<glyph unicode="&#x33;" glyph-name="chevron-right" data-tags="chevron-right" d="M332.8-51.2l-108.8 118.4 358.4 380.8-358.4 380.8 105.6 118.4 470.4-499.2-467.2-499.2z" />
<glyph unicode="&#x34;" glyph-name="triangle-up" data-tags="triangle-up" d="M0 192l512 512 512-512z" />
<glyph unicode="&#x35;" glyph-name="triangle-down" data-tags="triangle-down" d="M1024 640l-512-512-512 512z" />
<glyph unicode="&#x36;" glyph-name="triangle-left" data-tags="triangle-left" d="M768-64l-512 512 512 512z" />
<glyph unicode="&#x37;" glyph-name="triangle-right" data-tags="triangle-right" d="M256 960l512-512-512-512z" />
<glyph unicode="&#x38;" glyph-name="arrow-up" data-tags="arrow-up" d="M214.4 496l243.2 240v-790.4h108.8v790.4l243.2-240 80 80-377.6 374.4-377.6-374.4z" />
<glyph unicode="&#x39;" glyph-name="arrow-down" data-tags="arrow-down" d="M812.8 400l-243.2-246.4v806.4h-115.2v-806.4l-243.2 246.4-83.2-80 384-384 384 384z" />
<glyph unicode="&#x3a;" glyph-name="arrow-left" data-tags="arrow-left" d="M464 147.2l-246.4 243.2h806.4v115.2h-806.4l246.4 243.2-80 83.2-384-384 384-384z" />
<glyph unicode="&#x3b;" glyph-name="arrow-right" data-tags="arrow-right" d="M560 748.8l246.4-243.2h-806.4v-115.2h806.4l-246.4-243.2 80-83.2 384 384-384 384z" />
<glyph unicode="&#x3c;" glyph-name="subtract" data-tags="subtract" d="M0 521.6h1024v-147.2h-1024v147.2z" />
<glyph unicode="&#x3d;" glyph-name="add" data-tags="add" d="M1024 531.2h-425.6v428.8h-166.4v-425.6h-432v-166.4h425.6v-425.6h166.4v425.6h425.6v166.4h6.4z" />
<glyph unicode="&#x3e;" glyph-name="cross" data-tags="cross, close" d="M0 22.4l86.4-86.4 425.6 422.4 425.6-422.4 86.4 86.4-422.4 425.6 422.4 425.6-86.4 86.4-425.6-422.4-425.6 422.4-86.4-86.4 422.4-425.6z" />
<glyph unicode="&#x3f;" glyph-name="check" data-tags="check" d="M284.8 35.2l-275.2 275.2 89.6 89.6 185.6-179.2 640 640 89.6-89.6z" />
<glyph unicode="&#x40;" glyph-name="zoom-out" data-tags="zoom-out" d="M121.6 540.8c0 160 128 294.4 294.4 294.4 160 0 294.4-128 294.4-294.4 0-160-128-294.4-294.4-294.4v0c-156.8 0-294.4 128-294.4 294.4zM1024 35.2l-265.6 265.6c54.4 70.4 83.2 150.4 76.8 243.2 0 227.2-179.2 416-416 416-230.4 0-419.2-179.2-419.2-419.2 0-230.4 179.2-419.2 419.2-419.2 83.2 0 166.4 25.6 233.6 76.8l265.6-265.6 105.6 102.4zM265.6 595.2h304v-102.4h-304v102.4z" />
<glyph unicode="&#x41;" glyph-name="zoom-in" data-tags="zoom-in" d="M758.4 300.8c54.4 70.4 83.2 150.4 76.8 243.2 0 227.2-179.2 416-416 416-230.4 0-419.2-179.2-419.2-419.2 0-230.4 179.2-419.2 419.2-419.2 83.2 0 166.4 25.6 233.6 76.8l265.6-265.6 105.6 99.2-265.6 268.8zM419.2 246.4c-83.2 0-156.8 32-208 86.4-54.4 54.4-86.4 128-86.4 208 0 160 128 294.4 294.4 294.4 160 0 294.4-128 294.4-294.4 0-156.8-128-294.4-294.4-294.4zM569.6 595.2v-105.6h-99.2v-99.2h-105.6v99.2h-99.2v105.6h99.2v99.2h105.6v-99.2z" />
<glyph unicode="&#x42;" glyph-name="search" data-tags="search" d="M121.6 540.8c0 160 128 294.4 294.4 294.4 160 0 294.4-128 294.4-294.4 0-160-128-294.4-294.4-294.4v0c-156.8 0-294.4 128-294.4 294.4zM1024 35.2l-265.6 265.6c54.4 70.4 83.2 150.4 76.8 243.2 0 227.2-179.2 416-416 416-230.4 0-419.2-179.2-419.2-419.2 0-230.4 179.2-419.2 419.2-419.2 83.2 0 166.4 25.6 233.6 76.8l265.6-265.6 105.6 102.4z" />
<glyph unicode="&#x43;" glyph-name="credit-card" data-tags="credit-card" d="M198.4 300.8v0c-16 0-28.8-12.8-28.8-28.8s12.8-28.8 28.8-28.8v0h230.4c16 0 28.8 12.8 28.8 28.8s-12.8 28.8-28.8 28.8v0h-230.4zM57.6 412.8h915.2v-230.4c0-35.2-25.6-57.6-57.6-57.6h-803.2c-35.2 0-57.6 25.6-57.6 57.6 3.2 3.2 3.2 230.4 3.2 230.4zM57.6 585.6h915.2v-112h-915.2v112zM112 758.4h800c35.2 0 57.6-25.6 57.6-57.6v-57.6h-912v60.8c0 28.8 25.6 54.4 54.4 54.4zM112 816c-64 0-112-54.4-112-112v-512c0-64 51.2-112 112-112h800c64 0 112 51.2 112 112v512c0 64-51.2 112-112 112h-800z" />
<glyph unicode="&#x44;" glyph-name="heart-empty" data-tags="heart-empty" d="M284.8 809.6c48 0 96-19.2 131.2-57.6l67.2-70.4c16-16 41.6-16 51.2 0l67.2 70.4c70.4 76.8 188.8 76.8 265.6 0s70.4-201.6 0-275.2c-121.6-124.8-243.2-249.6-358.4-374.4l-355.2 374.4c-70.4 76.8-70.4 201.6 0 275.2 38.4 38.4 86.4 57.6 131.2 57.6v0zM284.8 880c-64 0-131.2-28.8-182.4-76.8-102.4-105.6-102.4-272-3.2-377.6 134.4-144 259.2-268.8 387.2-403.2 16-16 41.6-16 51.2 0 128 131.2 256 268.8 387.2 403.2 102.4 105.6 102.4 272 0 377.6s-268.8 105.6-364.8 0l-44.8-48-44.8 48c-54.4 57.6-124.8 80-185.6 76.8v0z" />
<glyph unicode="&#x45;" glyph-name="heart-full" data-tags="heart-full" d="M928 425.6c-128-131.2-256-268.8-384-403.2-16-16-38.4-16-51.2 0-128 131.2-256 259.2-384 403.2-108.8 108.8-108.8 272-9.6 380.8 51.2 51.2 115.2 76.8 182.4 76.8 60.8 0 134.4-25.6 182.4-76.8l48-51.2 41.6 48c102.4 105.6 268.8 105.6 364.8 0 105.6-105.6 105.6-268.8 9.6-377.6z" />
<glyph unicode="&#x46;" glyph-name="star-empty" data-tags="star-empty" d="M195.2-64l112 400-310.4 233.6h380.8l134.4 390.4 134.4-384h380.8l-310.4-233.6 112-400-316.8 236.8-316.8-243.2zM512 262.4l201.6-150.4-70.4 252.8 188.8 144h-230.4l-89.6 249.6-89.6-252.8h-230.4l188.8-144-70.4-252.8 201.6 153.6z" />
<glyph unicode="&#x47;" glyph-name="star-full" data-tags="star-full" d="M512 960l140.8-390.4h371.2l-304-233.6 108.8-400-316.8 243.2-316.8-243.2 108.8 400-304 233.6h371.2z" />
<glyph unicode="&#x48;" glyph-name="home" data-tags="home" d="M822.4 553.6v-550.4h-147.2v310.4h-323.2v-310.4h-150.4v550.4l310.4 310.4 310.4-310.4zM131.2 486.4v-550.4h288v310.4h182.4v-310.4h288v550.4l83.2-83.2 48 48-512 512-512-512 48-48 86.4 83.2z" />
<glyph unicode="&#x49;" glyph-name="user" data-tags="user" d="M787.2 390.4c-25.6-16-41.6-38.4-73.6-54.4 102.4-73.6 185.6-188.8 214.4-310.4h-828.8c28.8 128 102.4 236.8 214.4 310.4-25.6 16-48 38.4-73.6 54.4-140.8-108.8-227.2-275.2-240-454.4h1024c-12.8 176-99.2 336-236.8 454.4zM515.2 960c-163.2 0-297.6-134.4-297.6-297.6s134.4-297.6 297.6-297.6 297.6 134.4 297.6 297.6-134.4 297.6-297.6 297.6v0zM515.2 873.6c115.2 0 214.4-99.2 214.4-214.4s-99.2-211.2-214.4-211.2-214.4 99.2-214.4 214.4 96 211.2 214.4 211.2z" />
<glyph unicode="&#x4a;" glyph-name="phone" data-tags="phone" d="M390.4 771.2l-118.4 112c-19.2 19.2-48 19.2-70.4 0l-118.4-112c-166.4-172.8 579.2-918.4 752-745.6l115.2 115.2c19.2 19.2 25.6 48 6.4 70.4l-121.6 108.8c-19.2 25.6-48 25.6-70.4 0l-92.8-89.6c-9.6-9.6-25.6-16-35.2-9.6-144 64-281.6 201.6-345.6 345.6-9.6 9.6-6.4 28.8 6.4 35.2l92.8 89.6c19.2 28.8 19.2 57.6 0 80v0zM428.8 809.6c38.4-38.4 38.4-115.2 0-156.8l-73.6-76.8c54.4-118.4 172.8-233.6 288-291.2l73.6 80c44.8 38.4 115.2 38.4 156.8 0l118.4-118.4c38.4-38.4 38.4-108.8 0-156.8l-118.4-115.2c-227.2-227.2-1062.4 614.4-835.2 835.2l118.4 115.2c38.4 44.8 108.8 44.8 156.8 0l115.2-115.2z" />
<glyph unicode="&#x4b;" glyph-name="facebook" data-tags="facebook" d="M385.728-63.68h191.872l0.128 512 174.272 0.064 18.688 176.448h-193.088l0.256 88.32c0 46.016 3.136 70.656 69.184 70.656h121.984v176.512h-174.912c-169.536 0-208.576-87.616-208.576-231.552l0.192-103.936-128.704-0.064v-176.448h128.704v-512z" />
<glyph unicode="&#x4c;" glyph-name="twitter" data-tags="twitter" d="M995.776 848.96c-40.576-24.064-85.568-41.536-133.44-51.008-38.336 40.896-92.928 66.368-153.344 66.368-116.032 0-210.112-94.080-210.112-210.048 0-16.448 1.856-32.512 5.44-47.872-174.592 8.768-329.408 92.416-433.024 219.52-18.112-30.976-28.416-67.072-28.416-105.6 0-72.896 37.12-137.216 93.44-174.848-34.432 1.152-66.816 10.624-95.168 26.368 0-0.896 0-1.728 0-2.624 0-101.76 72.448-186.688 168.512-206.016-17.6-4.8-36.16-7.36-55.36-7.36-13.568 0-26.688 1.344-39.552 3.776 26.752-83.456 104.32-144.192 196.224-145.92-71.872-56.32-162.496-89.92-260.928-89.92-16.96 0-33.664 1.024-50.112 2.944 92.992-59.584 203.392-94.4 322.048-94.4 386.432 0 597.76 320.128 597.76 597.76 0 9.088-0.192 18.176-0.64 27.2 41.152 29.504 76.8 66.496 104.96 108.608-37.696-16.704-78.144-28.032-120.64-33.088 43.392 25.984 76.672 67.2 92.352 116.16z" />
<glyph unicode="&#x4d;" glyph-name="pinterest" data-tags="pinterest" d="M257.92 368.128c49.472 87.488-15.936 106.688-26.176 170.112-41.92 259.2 299.008 436.224 477.568 255.104 123.52-125.44 42.176-511.104-156.992-471.040-190.784 38.336 93.44 345.344-58.816 405.568-123.776 49.024-189.504-149.76-130.816-248.576-34.432-169.92-108.544-329.92-78.528-542.976 97.28 70.592 130.112 205.824 156.992 346.816 48.896-29.76 75.072-60.672 137.408-65.472 229.952-17.856 358.464 229.568 326.976 457.92-27.904 202.368-229.696 305.408-444.864 281.28-170.112-19.072-339.712-156.608-346.752-353.28-4.288-120.064 29.76-210.176 144-235.456z" />
<glyph unicode="&#x4e;" glyph-name="google" data-tags="google+" d="M364.8 380.8h156.8c-28.8-80-102.4-137.6-192-137.6-108.8 0-198.4 86.4-201.6 192-3.2 115.2 86.4 211.2 201.6 211.2 54.4 0 99.2-22.4 137.6-54.4 6.4-6.4 22.4-6.4 28.8 0l57.6 54.4c9.6 6.4 9.6 22.4 0 32-60.8 57.6-134.4 89.6-220.8 92.8-179.2 3.2-329.6-144-332.8-320 0-179.2 144-326.4 326.4-326.4 172.8 0 313.6 137.6 326.4 307.2 0 3.2 0 73.6 0 73.6h-294.4c-9.6 0-22.4-9.6-22.4-22.4v-80c6.4-9.6 16-22.4 28.8-22.4zM928 499.2v80c0 9.6-6.4 19.2-19.2 19.2h-64c-9.6 0-19.2-6.4-19.2-19.2v-80h-80c-9.6 0-19.2-6.4-19.2-19.2v-67.2c0-9.6 6.4-19.2 19.2-19.2h80v-80c0-9.6 6.4-19.2 19.2-19.2h64c9.6 0 19.2 6.4 19.2 19.2v80h80c9.6 0 19.2 6.4 19.2 19.2v64c0 9.6-6.4 19.2-19.2 19.2l-80 3.2z" />
<glyph unicode="&#x4f;" glyph-name="instagram" data-tags="instagram" d="M1008 662.4c0 41.6-9.6 80-19.2 124.8-12.8 35.2-35.2 60.8-57.6 89.6-28.8 28.8-57.6 48-89.6 60.8-38.4 12.8-80 22.4-124.8 22.4-57.6 0-67.2 0-204.8 0s-150.4 0-204.8 0c-41.6 0-83.2-9.6-124.8-22.4-28.8-6.4-67.2-28.8-86.4-54.4-28.8-28.8-48-60.8-60.8-96s-19.2-83.2-19.2-128c0-57.6 0-76.8 0-214.4s0-156.8 0-214.4c0-41.6 9.6-80 19.2-124.8 12.8-35.2 35.2-60.8 57.6-89.6 28.8-28.8 57.6-48 89.6-60.8 38.4-9.6 80-19.2 124.8-19.2 57.6 0 67.2 0 204.8 0s150.4 0 204.8 0c41.6 0 80 9.6 124.8 19.2 35.2 12.8 60.8 35.2 89.6 60.8 28.8 28.8 48 57.6 57.6 89.6 12.8 41.6 19.2 80 19.2 124.8 0 57.6 0 67.2 0 214.4s0 163.2 0 217.6zM918.4 243.2c0-35.2-9.6-60.8-19.2-96-9.6-19.2-19.2-41.6-35.2-60.8-12.8-12.8-35.2-28.8-57.6-41.6-28.8-12.8-60.8-19.2-96-19.2-57.6 0-67.2 0-198.4 0s-150.4 0-198.4 0c-35.2 0-60.8 9.6-96 19.2-19.2 9.6-41.6 19.2-57.6 41.6-12.8 12.8-28.8 35.2-35.2 60.8-9.6 28.8-9.6 60.8-16 96 0 57.6 0 67.2 0 204.8s0 150.4 0 204.8c0 35.2 9.6 67.2 25.6 96 3.2 19.2 19.2 41.6 32 60.8 12.8 12.8 35.2 28.8 57.6 41.6 28.8 9.6 57.6 12.8 89.6 12.8 57.6 0 67.2 0 198.4 0s150.4 0 198.4 0c35.2 0 60.8-9.6 96-19.2 19.2-9.6 41.6-19.2 57.6-41.6 6.4-9.6 22.4-35.2 32-57.6 12.8-28.8 12.8-60.8 19.2-96 0-57.6 0-67.2 0-204.8s3.2-144 3.2-201.6zM508.8 716.8c-144 9.6-265.6-108.8-275.2-252.8s108.8-265.6 252.8-275.2 265.6 108.8 275.2 252.8v9.6c9.6 144-108.8 265.6-252.8 265.6zM508.8 275.2c-96 0-172.8 67.2-176 166.4 0 96 67.2 172.8 166.4 176 96 0 172.8-67.2 176-166.4 0 0 0 0 0-9.6 6.4-80-70.4-166.4-166.4-166.4v0zM774.4 784c-35.2 0-60.8-28.8-60.8-60.8s28.8-60.8 60.8-60.8c35.2 0 60.8 28.8 60.8 60.8v0c3.2 38.4-25.6 60.8-60.8 60.8v0 0z" />
<glyph unicode="&#x50;" glyph-name="vimeo" data-tags="vimeo" d="M587.392 654.592c116.992 70.208 179.456-28.544 119.552-140.352-59.776-111.744-114.368-184.576-142.976-184.576-28.544 0-50.496 74.752-83.2 205.44-33.792 135.104-33.6 378.432-174.144 350.848-132.48-26.048-306.624-233.984-306.624-233.984l41.6-54.528c0 0 85.76 67.584 114.368 33.792s137.728-441.984 174.144-517.248c31.808-66.048 119.488-153.344 215.744-91.008 96.128 62.336 415.808 335.296 473.088 657.6 57.152 322.24-384.704 254.72-431.552-25.984z" />
<glyph unicode="&#x51;" glyph-name="youtube" data-tags="youtube" d="M885.504 798.848c-233.152 15.68-509.568 19.968-747.008 0-73.728-8.256-124.224-97.984-129.728-166.144-11.648-143.168-11.648-224.64 0-367.808 5.568-68.16 54.784-158.4 129.792-167.872 240.256-15.744 515.264-17.92 747.008 0 72.576 12.608 124.224 99.712 129.792 167.872 11.648 143.168 11.648 233.536 0 376.768-5.632 68.16-46.336 154.112-129.856 157.184zM384 267.2v367.040l320-183.552-320-183.488z" />
<glyph unicode="&#x52;" glyph-name="flickr" data-tags="flickr" d="M0 451.84c0-117.824 95.488-213.312 213.312-213.312s213.312 95.488 213.312 213.312c0 117.824-95.488 213.312-213.312 213.312s-213.312-95.488-213.312-213.312zM597.376 451.84c0-117.824 95.488-213.312 213.312-213.312s213.312 95.488 213.312 213.312c0 117.824-95.488 213.312-213.312 213.312s-213.312-95.488-213.312-213.312z" />
<glyph unicode="&#x53;" glyph-name="print" data-tags="print" d="M316.8 563.2c19.2 0 35.2-16 35.2-35.2s-16-35.2-35.2-35.2c-19.2 0-35.2 16-35.2 35.2-3.2 22.4 12.8 35.2 35.2 35.2zM316.8 432c54.4 0 99.2 44.8 99.2 99.2s-44.8 99.2-99.2 99.2-99.2-44.8-99.2-99.2c-3.2-54.4 41.6-99.2 99.2-99.2zM960 246.4h-182.4v73.6h60.8v64h-672v-64h83.2v-73.6h-185.6v432h896v-432zM313.6 6.4v313.6h393.6v-313.6h-393.6zM313.6 883.2h393.6v-137.6h-393.6v137.6zM249.6 950.4v-201.6h-249.6v-566.4h249.6v-236.8h528v236.8h246.4v563.2h-249.6v204.8h-524.8zM396.8 131.2h230.4v-64h-230.4v64zM396.8 256h230.4v-64h-230.4v64z" />
<glyph unicode="&#x54;" glyph-name="wallet" data-tags="wallet" d="M793.6 755.2v176h-665.6c-70.4 0-124.8-54.4-124.8-124.8v-841.6h1020.8v790.4h-230.4zM80 688c3.2 0 6.4-3.2 9.6-3.2s9.6-3.2 19.2-3.2v0c6.4 0 9.6 0 19.2 0h816v-640h-864v646.4zM716.8 758.4h-588.8c-25.6 0-48 22.4-48 48s22.4 48 48 48h588.8v-96zM752 480h76.8v-233.6h-76.8v233.6z" />
<glyph unicode="&#x55;" glyph-name="document" data-tags="document" d="M723.2 182.4h-428.8c-16 0-28.8-12.8-28.8-28.8s12.8-28.8 28.8-28.8h425.6c16 0 28.8 12.8 28.8 28.8 3.2 16-9.6 28.8-25.6 28.8zM723.2 336h-428.8c-16 0-28.8-12.8-28.8-28.8s12.8-28.8 28.8-28.8h425.6c16 0 28.8 12.8 28.8 28.8s-9.6 28.8-25.6 28.8zM268.8 467.2c0-16 12.8-28.8 28.8-28.8h425.6c16 0 28.8 12.8 28.8 28.8s-12.8 28.8-28.8 28.8h-428.8c-16 0-25.6-12.8-25.6-28.8zM854.4-9.6h-691.2v915.2h492.8v-198.4c0-16 12.8-28.8 28.8-28.8h169.6v-688zM713.6 857.6l105.6-121.6h-105.6v121.6zM905.6 726.4l-198.4 227.2c-3.2 6.4-9.6 6.4-19.2 6.4h-550.4c-16 0-28.8-12.8-28.8-28.8v-969.6c0-16 12.8-28.8 28.8-28.8h748.8c16 0 28.8 12.8 28.8 28.8v745.6c0 6.4-3.2 16-9.6 19.2v0z" />
<glyph unicode="&#x56;" glyph-name="menu" data-tags="menu" d="M0 179.2v-108.8h1024v108.8h-1024zM0 502.4v-108.8h1024v108.8c0 0-1024 0-1024 0zM0 825.6v-108.8h1024v108.8h-1024z" />
<glyph unicode="&#x57;" glyph-name="calendar" data-tags="calendar" d="M960 784v-150.4h-896v150.4h134.4v-57.6h57.6v57.6h515.2v-57.6h57.6v57.6h131.2zM960 19.2h-896v556.8h896v-556.8zM825.6 937.6h-57.6v-92.8h-515.2v92.8h-54.4v-92.8h-195.2v-886.4h1020.8v886.4h-195.2l-3.2 92.8zM179.2 419.2h86.4v86.4h-86.4v-86.4zM374.4 419.2h86.4v86.4h-86.4v-86.4zM563.2 419.2h86.4v86.4h-86.4v-86.4zM758.4 419.2h86.4v86.4h-86.4v-86.4zM179.2 252.8h86.4v86.4h-86.4v-86.4zM374.4 252.8h86.4v86.4h-86.4v-86.4zM563.2 252.8h86.4v86.4h-86.4v-86.4zM758.4 252.8h86.4v86.4h-86.4v-86.4zM179.2 89.6h86.4v86.4h-86.4v-86.4zM374.4 89.6h86.4v86.4h-86.4v-86.4zM563.2 89.6h86.4v86.4h-86.4v-86.4z" />
<glyph unicode="&#x58;" glyph-name="bag-empty" data-tags="bag-empty" d="M838.4 3.2h-652.8v691.2h652.8v-691.2zM518.4 896c83.2 0 150.4-60.8 169.6-140.8h-342.4c25.6 83.2 92.8 140.8 172.8 140.8zM752 755.2c-25.6 115.2-121.6 201.6-233.6 201.6s-211.2-86.4-233.6-201.6h-163.2v-816h780.8v816c0 0-150.4 0-150.4 0z" />
<glyph unicode="&#x59;" glyph-name="bag-full" data-tags="bag-full" d="M753.16 755.231c-26.428 112.321-122.232 201.517-234.553 201.517s-211.428-89.196-234.553-201.517h-165.178v-819.282h782.943v819.282c0 0-148.66 0-148.66 0zM518.607 897.284c82.589 0 148.66-59.464 171.785-142.053h-346.873c26.428 79.285 92.5 142.053 175.089 142.053z" />
<glyph unicode="&#x5a;" glyph-name="cart-empty" data-tags="cart-empty" d="M857.6 294.4c-51.2 0-92.8-25.6-115.2-70.4h-243.2c-22.4 38.4-64 70.4-115.2 70.4 0 0 0 0-3.2 0l-3.2 19.2h508.8l137.6 438.4h-758.4l-32 115.2h-230.4v-67.2h182.4l131.2-524.8c-38.4-22.4-64-64-64-115.2 0-73.6 60.8-134.4 134.4-134.4s131.2 57.6 134.4 131.2h208c0-73.6 60.8-131.2 134.4-131.2s134.4 60.8 134.4 134.4c-6.4 76.8-67.2 134.4-140.8 134.4zM928 688l-96-304h-473.6l-76.8 304c0 0 646.4 0 646.4 0zM384 92.8c-35.2 0-64 32-64 64 0 35.2 32 64 64 64s64-32 64-64c3.2-28.8-28.8-64-64-64zM857.6 92.8c-35.2 0-64 32-64 64 0 35.2 32 64 64 64s64-32 64-64c3.2-28.8-25.6-64-64-64z" />
<glyph unicode="&#x5b;" glyph-name="cart-full" data-tags="cart-full" d="M857.6 294.4c-51.2 0-92.8-25.6-115.2-70.4h-243.2c-22.4 38.4-64 70.4-115.2 70.4h-3.2l-3.2 19.2h508.8l137.6 438.4h-758.4l-32 115.2h-230.4v-67.2h182.4l131.2-524.8c-38.4-22.4-64-64-64-115.2 0-73.6 60.8-134.4 134.4-134.4s131.2 57.6 134.4 131.2h208c0-73.6 60.8-131.2 134.4-131.2s134.4 57.6 134.4 134.4c-6.4 76.8-67.2 134.4-140.8 134.4zM384 92.8c-35.2 0-64 32-64 64 0 35.2 32 64 64 64s64-32 64-64c3.2-28.8-28.8-64-64-64zM857.6 92.8c-35.2 0-64 32-64 64 0 35.2 32 64 64 64 35.2 0 64-32 64-64 3.2-28.8-25.6-64-64-64z" />
<glyph unicode="&#x5c;" glyph-name="location" data-tags="location" d="M550.4 38.4c-9.6-9.6-22.4-16-35.2-16s-25.6 3.2-35.2 16c-83.2 92.8-278.4 326.4-278.4 524.8 0 115.2 57.6 214.4 156.8 268.8s217.6 54.4 313.6 0 156.8-160 156.8-268.8c0-204.8-195.2-435.2-278.4-524.8v0zM515.2 947.2c-99.2 0-198.4-44.8-272-115.2s-115.2-169.6-115.2-275.2c0-220.8 185.6-451.2 294.4-569.6 22.4-25.6 54.4-38.4 89.6-38.4s67.2 12.8 89.6 38.4c108.8 121.6 294.4 355.2 294.4 569.6v0c0 102.4-41.6 198.4-115.2 275.2-67.2 70.4-163.2 115.2-265.6 115.2v0zM515.2 451.2c-48 0-89.6 28.8-105.6 70.4s-9.6 92.8 25.6 128 80 41.6 128 25.6c41.6-16 70.4-57.6 70.4-105.6-3.2-67.2-54.4-118.4-118.4-118.4v0zM515.2 755.2c-51.2 0-96-22.4-131.2-54.4s-54.4-83.2-54.4-131.2c0-51.2 22.4-96 54.4-131.2 35.2-35.2 83.2-54.4 131.2-54.4 51.2 0 96 22.4 131.2 54.4 35.2 35.2 54.4 83.2 54.4 131.2 0 51.2-22.4 96-54.4 131.2s-80 54.4-131.2 54.4v0z" />
</font>
</defs>
</svg>
